<?xml version="1.0" encoding="utf-8"?>
<!-- Generator: Adobe Illustrator 19.2.0, SVG Export Plug-In . SVG Version: 6.00 Build 0)  -->
<svg version="1.1"
	 id="Layer_1" xmlns:cc="http://creativecommons.org/ns#" xmlns:dc="http://purl.org/dc/elements/1.1/" xmlns:inkscape="http://www.inkscape.org/namespaces/inkscape" xmlns:rdf="http://www.w3.org/1999/02/22-rdf-syntax-ns#" xmlns:sodipodi="http://sodipodi.sourceforge.net/DTD/sodipodi-0.dtd" xmlns:svg="http://www.w3.org/2000/svg"
	 xmlns="http://www.w3.org/2000/svg" xmlns:xlink="http://www.w3.org/1999/xlink" x="0px" y="0px" width="114px" height="112.2px"
	 viewBox="0 0 114 112.2" style="enable-background:new 0 0 114 112.2;" xml:space="preserve">
<g transform="translate(-181.435,-457.6595)">
	<path style="fill:#1D5EC1;" d="M232.1,457.7c-2.9,0-5.2,2.3-5.2,5.2c0,2.9,2.3,5.2,5.2,5.2h10.6v6c0.7-0.1,1.4-0.2,2.2-0.2h6
		c0.8,0,1.4,0.1,2.2,0.2v-6h10.6c2.9,0,5.2-2.3,5.2-5.2c0-2.9-2.3-5.2-5.2-5.2H232.1L232.1,457.7z M244.9,477.7
		c-5.2,0-9.4,4.1-9.7,9.3h-12.3c-18.8,0-34.1,15.3-34.1,34.1v6.8h26.3V524c0-5.9,4.8-10.6,10.6-10.6h9.5c0.4,5,4.5,8.8,9.6,8.8h6.1
		c5.1,0,9.2-3.9,9.6-8.8h21.6v6.3h13.3v-39.4h-13.2v6.7h-21.6c-0.2-5.2-4.4-9.3-9.6-9.3H244.9L244.9,477.7z M187.1,531.9
		c-3.1,0-5.6,2.5-5.6,5.6c0,3.1,2.5,5.6,5.6,5.6h29.9c3.1,0,5.6-2.5,5.6-5.6c0-3.1-2.5-5.6-5.6-5.6H187.1z M202,547.4
		c-0.7,0-1.4,0.3-1.8,0.9c-2.6,3.3-7.1,9.2-7.1,12.7c0,4.9,4,8.9,8.9,8.9c4.9,0,8.9-4,8.9-8.9c0-3.5-4.4-9.5-7.1-12.7
		C203.4,547.7,202.7,547.4,202,547.4L202,547.4z M208.4,559.8c0.2,0,0.4,0.2,0.4,0.4c0,3.8-3.1,6.9-6.9,6.9c-0.3,0-0.5-0.2-0.5-0.5
		c0-0.2,0.2-0.5,0.5-0.5c3.3,0,6-2.7,6-6C208,560,208.2,559.8,208.4,559.8L208.4,559.8z"/>
</g>
</svg>
